<!DOCTYPE svg PUBLIC "-//W3C//DTD SVG 1.1//EN" "http://www.w3.org/Graphics/SVG/1.1/DTD/svg11.dtd">
<!-- Uploaded to: SVG Repo, www.svgrepo.com, Transformed by: SVG Repo Mixer Tools -->
<svg width="150px" height="150px" viewBox="-2.4 -2.4 28.80 28.80" fill="none" xmlns="http://www.w3.org/2000/svg">
<g id="SVGRepo_bgCarrier" stroke-width="0"/>
<g id="SVGRepo_tracerCarrier" stroke-linecap="round" stroke-linejoin="round" stroke="#CCCCCC" stroke-width="0.192"/>
<g id="SVGRepo_iconCarrier"> <path fill-rule="evenodd" clip-rule="evenodd" d="M12 21C16.9706 21 21 16.9706 21 12C21 7.02944 16.9706 3 12 3C7.02944 3 3 7.02944 3 12C3 16.9706 7.02944 21 12 21ZM9.73666 7.86847L16.2111 11.1057C16.9482 11.4742 16.9482 12.526 16.2111 12.8946L9.73666 16.1318C8.93878 16.5308 8 15.9506 8 15.0585V8.94178C8 8.04972 8.93878 7.46953 9.73666 7.86847Z" fill="#0276e2" fill-opacity="0.24"/> <path d="M16.2111 11.1056L9.73666 7.86833C8.93878 7.46939 8 8.04958 8 8.94164V15.0584C8 15.9504 8.93878 16.5306 9.73666 16.1317L16.2111 12.8944C16.9482 12.5259 16.9482 11.4741 16.2111 11.1056Z" stroke="#0276e2" stroke-width="1.2" stroke-linecap="round" stroke-linejoin="round"/> <circle cx="12" cy="12" r="9" stroke="#0276e2" stroke-width="1.2"/> </g>
</svg>